<svg xmlns="http://www.w3.org/2000/svg" viewBox="0 0 256 256" fill="none">
  <path d="M70 30h105c24 0 43 19 43 43v112c0 24-19 43-43 43H70c-24 0-43-19-43-43V73c0-24 19-43 43-43Z" fill="#E9DDC6" stroke="#51463A" stroke-width="8"/>
  <path d="M176 38c20 5 34 22 34 43v102c0 20-13 35-31 40l-20-19c17-4 28-18 28-35V78c0-17-8-31-21-40h10Z" fill="#BBAA91" opacity=".58"/>
  <path d="M128 70v95M93 89h70M93 89l-31 68M163 89l31 68" stroke="#51463A" stroke-width="8" stroke-linecap="round" stroke-linejoin="round"/>
  <path d="M49 157h56c-4 19-52 19-56 0ZM151 157h56c-4 19-52 19-56 0Z" fill="#FFF8EF" stroke="#51463A" stroke-width="7" stroke-linejoin="round"/>
  <path d="M92 190h72M110 165h36v25h-36z" fill="#D7C8B0" stroke="#51463A" stroke-width="7" stroke-linejoin="round"/>
  <path d="M61 47c11-7 29-8 42-5" stroke="#FFFFFF" stroke-width="10" stroke-linecap="round" opacity=".82"/>
</svg>
